<svg xmlns="http://www.w3.org/2000/svg" viewBox="0 0 135.53 56.51"><defs><style>.cls-1{fill:#010101;}.cls-2{fill:none;stroke:#010101;stroke-linecap:round;stroke-linejoin:round;stroke-width:0.71px;}</style></defs><title>bookstacheAsset 1</title><g id="Layer_2" data-name="Layer 2"><g id="Layer_1-2" data-name="Layer 1"><path class="cls-1" d="M127.23,44.94c-2.75,0-4.11-1.4-4.41-3.31l0-.44-.11.16c-1.52,2.23-3.55,3.59-5.25,3.59a2.37,2.37,0,0,1-2.22-2.6c0-2.53,3.11-4.91,3.11-7.29,0-.6-.19-.79-.54-.79-1,0-3.68,3.17-4.82,6.18a6.72,6.72,0,0,0-.38,3.65,2.09,2.09,0,0,1-3.77-1.3l0-.68-.15.17a8,8,0,0,1-5.64,2.66c-2.74,0-4.11-1.4-4.4-3.31l0-.39-.43.69c-1.33,1.88-3,3-4.52,3a1.94,1.94,0,0,1-2.16-2.06,4,4,0,0,1,.1-.89c-1.3,1.71-2.89,2.95-4.32,2.95-1.8,0-2.68-1.31-2.87-3l0-.5-.37.53c-1.39,1.88-3.1,3-4.65,3a1.94,1.94,0,0,1-2.16-2.06v-.14L77,43a9.44,9.44,0,0,1-6.75,2.39c-3.9,0-5.58-2.5-5.58-4.69,0-2.85,1.9-4.25,3.55-4.25a2.16,2.16,0,0,1,2.22,2.64,1.1,1.1,0,0,0-1.08,1c0,.54.38,1,1.39,1a1.58,1.58,0,0,0,1.65-1.65c0-1.68-2-2.73-2-4.57a3.5,3.5,0,0,1,3.68-3.26c1.74,0,3.33.86,3.33,2.47a1.89,1.89,0,0,1-1.87,2.09,1.61,1.61,0,0,1-1.81-1.68c.38,0,.92-.12.92-.6s-.41-.54-.83-.54a1.24,1.24,0,0,0-1.17,1.4c0,1.68,3.55,2.85,3.55,5.7a4.29,4.29,0,0,1,0,.64c.71,0,1.33-.67,1.81-1.45l.17-.29.59-1.35c.87-1.94,1.92-4.08,2.6-6H80.06c-.07-.73.47-1.52,1-1.52h.88A5.15,5.15,0,0,0,82,27.89a2.08,2.08,0,0,1,3.77,1.3,6.39,6.39,0,0,1-.22,1.36h1.36c0,.67-.09,1.52-1,1.52h-.83c-1.14,3.23-3.29,7.58-3.29,8.37a.63.63,0,0,0,.69.7c1.4,0,2.73-3.62,2.73-3.62l0,0,.31-.62c1.53-2.76,4.29-4.59,6.32-4.59,1.39,0,2.53.86,2.53,2.85a3.63,3.63,0,0,1,0,.57,4.64,4.64,0,0,0,0-2.56,2.09,2.09,0,0,1,3.78,1.3c0,1.87-2.1,5.16-2.1,6.24,0,.22.1.44.51.44,1.05,0,2.06-2,2.5-3l.12-.31,0,0,0-.07.06-.15h0l.22-.51a8.18,8.18,0,0,1,7.19-4.72,2.67,2.67,0,0,1,2.91,2.63,3.6,3.6,0,0,1-3.39,3.49c-1,0-1.71-.41-1.71-1.39a2.25,2.25,0,0,1,.48-1.3,1.14,1.14,0,0,0,.57.12,1.79,1.79,0,0,0,1.8-1.49.6.6,0,0,0-.66-.66c-1.75,0-3.77,2.72-3.77,4.66,0,1.74,1,2.79,2.31,2.79a5.31,5.31,0,0,0,4.67-2.68l.4-.76.15-.37c1.51-3.51,3.41-7.4,2.8-9.44a1.9,1.9,0,0,1,1.77-.86,1.87,1.87,0,0,1,2,2.16,18.18,18.18,0,0,1-1.55,5,6.19,6.19,0,0,1,3.9-1.9c1.49,0,2.28,1.11,2.28,2.72,0,2.09-1.52,4-1.52,5.07,0,.54.19,1,.63,1,.87,0,1.71-1.41,2.21-2.47l.16-.34.2-.59a8.27,8.27,0,0,1,7.51-5.45c2,0,2.89,1.05,2.89,2.38,0,2.12-2.29,5-6.34,5.2a2.23,2.23,0,0,0,2,1.27,5.51,5.51,0,0,0,5.17-3.62.74.74,0,0,1,.47-.19.45.45,0,0,1,.48.48C134.23,41.64,131.09,44.88,127.23,44.94Zm-.13-6.59a1.76,1.76,0,0,0,0,.41c2.6,0,4.56-2.88,4.56-4.31,0-.44-.22-.76-.82-.76C129.13,33.69,127.1,36.41,127.1,38.35ZM93,35.46c0-.7-.29-1.2-.92-1.2-1.9,0-4.06,3.32-4.06,5.48,0,.82.29,1.39,1,1.39C90.67,41.13,93,37.08,93,35.46Z"/><path class="cls-1" d="M91.67,17.52C93,16.66,94.52,15,96.17,15A2.62,2.62,0,0,1,99,17.74a3.5,3.5,0,0,1-3.11,3.61,1.82,1.82,0,0,1-1.8-2s.09,0,.16,0c.28,0,.72-.19.72-.61a.57.57,0,0,0-.57-.6,4.81,4.81,0,0,0-2.31,1.05c1.3,1.14.73,4.53,3,4.53,1.65,0,3.52-.79,4.73-3.61a.59.59,0,0,1,.44-.19.42.42,0,0,1,.44.47c-.88,2.92-3.39,7.13-6.94,7.13-2.82,0-3.3-1.49-3.3-2.5,0-1.33.45-1.68.45-3.17a1.84,1.84,0,0,0-.57-1.39c-1,2.44-1.78,4.78-1.33,6.21a2.09,2.09,0,0,1-3.78-1.3,6.24,6.24,0,0,1,.24-1.55l0-.2-.16.11a3.08,3.08,0,0,1-1.36.34,2.49,2.49,0,0,1-.82-.16c-1.37,2-3.14,3.61-4.79,3.61-2.06,0-2.91-1.71-2.91-3.8l0-.52-.16.15a3.21,3.21,0,0,1-2,.72,2.49,2.49,0,0,1-.82-.16c-1.36,2-3.14,3.61-4.79,3.61-2.06,0-2.91-1.71-2.91-3.8,0-5,4.5-8.85,7.45-8.85,1.8,0,2.5,1.18,2.5,2.79a10.53,10.53,0,0,1-1,3.93.7.7,0,0,0,.79.64c.89,0,1.3-1.18,1.62-2.13l.08-.05.29-.59c1.53-2.76,4.29-4.59,6.31-4.59,1.81,0,2.51,1.18,2.51,2.79a10.37,10.37,0,0,1-1,3.93.72.72,0,0,0,.8.64,1.05,1.05,0,0,0,.81-.42l.19-.26L86.94,20c1.51-3.51,3.41-7.4,2.79-9.44a1.92,1.92,0,0,1,1.78-.85,1.87,1.87,0,0,1,2,2.15A20.48,20.48,0,0,1,91.67,17.52Zm-9.62,2.85a2,2,0,0,1,1.82-1.12A4.84,4.84,0,0,0,84.09,18c0-.64-.28-1.08-.91-1.08-1.91,0-4.06,3.33-4.06,5.48,0,.83.29,1.4,1,1.4a2.82,2.82,0,0,0,1.78-1.11,2.32,2.32,0,0,1-.19-1A2.7,2.7,0,0,1,82.05,20.37Zm-10.62,0a2,2,0,0,1,1.82-1.12A4.89,4.89,0,0,0,73.48,18c0-.64-.29-1.08-.92-1.08-1.9,0-4.06,3.33-4.06,5.48,0,.83.29,1.4,1,1.4a2.81,2.81,0,0,0,1.77-1.11,2.32,2.32,0,0,1-.19-1A2.82,2.82,0,0,1,71.43,20.37Z"/><path class="cls-1" d="M46.71,19.29c5.6-.16,10.48-3.41,10.48-8.77,0-5.76-4.23-8.2-9.18-8.2-.3,0-.94.05-1.93.15-3.43,1.1-6.5,3.75-6.5,7.29,0,1.7,1,2.21,1.85,2.21a2.67,2.67,0,0,0,.62-.1c.82,2-1.75,6.32-5.75,6.32-3.7,0-5.55-2.31-5.55-5.45C30.75,4.83,40.2,0,48.06,0,48.79,0,63.44-.32,63,12.47a15,15,0,0,1-4.87,10.64,18.62,18.62,0,0,1,4.28,7.54l.12.53-.27-.24a17.37,17.37,0,0,0-2.44-1.56A8.68,8.68,0,0,0,55,28.1l-.68.15,0-.27A9.32,9.32,0,0,0,53.69,26a25.54,25.54,0,0,1-11.61,2.6c-1.09,2.13-2.23,4.31-3.46,6.46l-.83,1.43-.37-.16c-3.37-1.62-4.82-4.19-5.84-3.71a.37.37,0,0,1-.24,0l0,0c7.76-10,14.06-25.94,20-25.94A3.3,3.3,0,0,1,55,10c0,1.14-.56,1.63-1,1.63a.93.93,0,0,0-.89-.49C51.34,11.17,49.23,14.5,46.71,19.29Z"/><path class="cls-2" d="M57.85,49.53a20.76,20.76,0,0,1-15.6,6.63,21.06,21.06,0,0,1-14.7-5.93c-3.81,3.57-8.2,5.93-13.15,5.93-9.09,0-14-6.42-14-12.91,0-6.83,4.31-13.73,11.53-13.73A7.39,7.39,0,0,1,17.24,32a5,5,0,0,0-1.7,3.9c0,2.27,1.29,4.62,4.22,4.62a8.78,8.78,0,0,0,2.49-.37l.4-.15.14,0a19.7,19.7,0,0,0,8.75-5c1,1,3.45,4.49,8,5.37a31.65,31.65,0,0,0,3.89.22c5.44,0,11.13-4,11.13-9.58,0-2.27,8.52,1.68,8.52,5a20.66,20.66,0,0,1-.13,2.37A19.9,19.9,0,0,1,57.85,49.53Z"/></g></g></svg>