<svg xmlns="http://www.w3.org/2000/svg" viewBox="0 0 63.38 56.51"><defs><style>.cls-1{fill:#010101;}.cls-2{fill:none;stroke:#010101;stroke-linecap:round;stroke-linejoin:round;stroke-width:0.71px;}</style></defs><title>bookstache-bAsset 2</title><g id="Layer_2" data-name="Layer 2"><g id="Layer_1-2" data-name="Layer 1"><path class="cls-1" d="M46.71,19.29c5.6-.16,10.48-3.41,10.48-8.77,0-5.76-4.23-8.2-9.18-8.2-.3,0-.94.05-1.93.15-3.43,1.1-6.5,3.75-6.5,7.29,0,1.7,1,2.21,1.85,2.21a2.67,2.67,0,0,0,.62-.1c.82,2-1.75,6.32-5.75,6.32-3.7,0-5.55-2.31-5.55-5.45C30.75,4.83,40.2,0,48.06,0,48.79,0,63.44-.32,63,12.47a15,15,0,0,1-4.87,10.64,18.62,18.62,0,0,1,4.28,7.54l.12.53-.27-.24a17.37,17.37,0,0,0-2.44-1.56A8.68,8.68,0,0,0,55,28.1l-.68.15,0-.27A9.32,9.32,0,0,0,53.69,26a25.54,25.54,0,0,1-11.61,2.6c-1.09,2.13-2.23,4.31-3.46,6.46l-.83,1.43-.37-.16c-3.37-1.62-4.82-4.19-5.84-3.71a.37.37,0,0,1-.24,0l0,0c7.76-10,14.06-25.94,20-25.94A3.3,3.3,0,0,1,55,10c0,1.14-.56,1.63-1,1.63a.93.93,0,0,0-.89-.49C51.34,11.17,49.23,14.5,46.71,19.29Z"/><path class="cls-2" d="M57.85,49.53a20.76,20.76,0,0,1-15.6,6.63,21.06,21.06,0,0,1-14.7-5.93c-3.81,3.57-8.2,5.93-13.15,5.93-9.09,0-14-6.42-14-12.91,0-6.83,4.31-13.73,11.53-13.73A7.39,7.39,0,0,1,17.24,32a5,5,0,0,0-1.7,3.9c0,2.27,1.29,4.62,4.22,4.62a8.78,8.78,0,0,0,2.49-.37l.4-.15.14,0a19.7,19.7,0,0,0,8.75-5c1,1,3.45,4.49,8,5.37a31.65,31.65,0,0,0,3.89.22c5.44,0,11.13-4,11.13-9.58,0-2.27,8.52,1.68,8.52,5a20.66,20.66,0,0,1-.13,2.37A19.9,19.9,0,0,1,57.85,49.53Z"/></g></g></svg>